<svg width="142" height="5" viewBox="0 0 142 5" fill="none" xmlns="http://www.w3.org/2000/svg">
<path d="M0 4.87463V0.138098H2.31415C2.55727 0.122619 2.8013 0.15183 3.03196 0.224018C3.26262 0.296206 3.47527 0.409919 3.65746 0.5585C3.77228 0.663038 3.86243 0.788149 3.92231 0.926049C3.98218 1.06395 4.01051 1.21169 4.00551 1.36007C4.01067 1.58329 3.9431 1.80285 3.81147 1.9906C3.67984 2.17834 3.49014 2.32573 3.26668 2.41388C3.55701 2.46936 3.81761 2.61509 4.00449 2.82647C4.19137 3.03785 4.29309 3.30195 4.29249 3.57419C4.30161 3.76144 4.25944 3.94781 4.16984 4.11624C4.08024 4.28467 3.94606 4.42978 3.77959 4.53831C3.36444 4.77958 2.87817 4.89706 2.38743 4.87463H0ZM0.891464 2.13361H2.11266C2.36294 2.14435 2.6112 2.08786 2.82705 1.97105C2.91322 1.91641 2.98264 1.84233 3.02862 1.75594C3.0746 1.66956 3.09561 1.57377 3.08961 1.47778C3.09289 1.39165 3.07285 1.30612 3.03129 1.22884C2.98973 1.15156 2.92795 1.08494 2.85148 1.03496C2.65138 0.918609 2.41617 0.863648 2.17982 0.878006H0.879259L0.891464 2.13361ZM0.891464 4.13472H2.39353C2.65066 4.14782 2.90609 4.0892 3.12625 3.96657C3.21242 3.91192 3.28183 3.83784 3.32781 3.75146C3.37379 3.66507 3.3948 3.56928 3.38881 3.47329C3.38881 3.05289 3.03466 2.83988 2.32637 2.83988H0.891464V4.13472Z" fill="white"/>
<path d="M6.051 4.87463V0.138086H6.96078V4.1179H9.67183V4.87463H6.051Z" fill="white"/>
<path d="M15.4542 4.23564C15.015 4.6536 14.431 4.91817 13.8025 4.98392C13.174 5.04967 12.5402 4.91251 12.0098 4.59598C11.4795 4.27946 11.0857 3.80332 10.8961 3.2493C10.7065 2.69528 10.7329 2.09796 10.9708 1.55987C11.2087 1.02178 11.6432 0.576498 12.1998 0.300473C12.7563 0.0244476 13.4002 -0.0651046 14.0208 0.0471937C14.6414 0.159492 15.2001 0.466637 15.6009 0.915891C16.0018 1.36514 16.2197 1.92848 16.2174 2.50919C16.2231 2.82928 16.1584 3.14713 16.0273 3.44376C15.8961 3.74039 15.7012 4.00971 15.4542 4.23564ZM12.273 3.67511C12.4325 3.83416 12.6273 3.95998 12.8443 4.0441C13.0613 4.12822 13.2954 4.16869 13.5308 4.16278C13.7604 4.16569 13.988 4.12371 14.1986 4.03962C14.4091 3.95554 14.5978 3.83128 14.752 3.67511C15.0688 3.34538 15.2436 2.92083 15.2436 2.48117C15.2436 2.0415 15.0688 1.61695 14.752 1.28722C14.5938 1.12627 14.3993 0.998802 14.1821 0.913633C13.965 0.828463 13.7302 0.787627 13.4942 0.793949C13.2645 0.790677 13.0368 0.832496 12.8261 0.916601C12.6155 1.00071 12.4269 1.12516 12.273 1.28162C11.9442 1.60667 11.7686 2.03782 11.7845 2.48117C11.7726 2.70404 11.8091 2.92687 11.8919 3.13666C11.9747 3.34646 12.1022 3.53902 12.2669 3.70314L12.273 3.67511Z" fill="white"/>
<path d="M20.4427 4.95312C20.0949 4.96104 19.7491 4.90233 19.4274 4.78072C19.1057 4.65912 18.8152 4.47729 18.5743 4.24685C18.0917 3.77674 17.8229 3.15516 17.8229 2.50918C17.8229 1.86321 18.0917 1.24162 18.5743 0.771513C18.82 0.537189 19.1165 0.352766 19.4446 0.230148C19.7727 0.107529 20.1252 0.0494411 20.4794 0.0596327C20.8704 0.0483213 21.2595 0.113276 21.6212 0.250213C21.9475 0.388769 22.245 0.57845 22.5004 0.81075L21.9204 1.42734C21.5337 1.07769 21.0159 0.877126 20.4733 0.866808C20.2431 0.860524 20.0144 0.900975 19.8033 0.985277C19.5922 1.06958 19.4039 1.19565 19.2521 1.35447C18.9408 1.68773 18.7697 2.11223 18.7697 2.55122C18.7697 2.99021 18.9408 3.41471 19.2521 3.74797C19.4047 3.90589 19.5931 4.03133 19.804 4.11556C20.0149 4.19979 20.2433 4.24076 20.4733 4.23563C20.7429 4.24049 21.0102 4.18873 21.2548 4.08429C21.5122 3.96122 21.7487 3.8045 21.957 3.61904L22.5371 4.17958C22.2757 4.44048 21.9629 4.65352 21.6151 4.80738C21.2406 4.93406 20.8404 4.98381 20.4427 4.95312Z" fill="white"/>
<path d="M24.2223 4.87463V0.138086H25.1321V2.52037L27.5745 0.138086H28.6858L26.5426 2.17844L28.7835 4.87463H27.6844L25.9259 2.74459L25.1321 3.50131V4.87463H24.2223Z" fill="white"/>
<path d="M32.3005 4.95312C31.9527 4.96104 31.6069 4.90233 31.2852 4.78072C30.9635 4.65912 30.6729 4.47729 30.4321 4.24685C29.9495 3.77674 29.6807 3.15516 29.6807 2.50918C29.6807 1.86321 29.9495 1.24162 30.4321 0.771513C30.6778 0.537189 30.9742 0.352766 31.3024 0.230148C31.6305 0.107529 31.983 0.0494411 32.3371 0.0596327C32.7281 0.0483213 33.1173 0.113276 33.4789 0.250213C33.8053 0.388769 34.1028 0.57845 34.3582 0.81075L33.7476 1.42734C33.3609 1.07769 32.8431 0.877126 32.3005 0.866808C32.0704 0.860524 31.8416 0.900975 31.6305 0.985277C31.4194 1.06958 31.2312 1.19565 31.0793 1.35447C30.768 1.68773 30.5969 2.11223 30.5969 2.55122C30.5969 2.99021 30.768 3.41471 31.0793 3.74797C31.232 3.90589 31.4203 4.03133 31.6312 4.11556C31.8422 4.19979 32.0705 4.24076 32.3005 4.23563C32.5702 4.24109 32.8377 4.1893 33.082 4.08429C33.3394 3.96122 33.5759 3.8045 33.7842 3.61904L34.3948 4.17958C34.1335 4.44048 33.8206 4.65352 33.4728 4.80738C33.0984 4.93406 32.6982 4.98381 32.3005 4.95312Z" fill="white"/>
<path d="M36.0801 4.87463V0.138086H36.9899V2.11118H39.4322V0.138086H40.3542V4.87463H39.4506V2.87911H37.0082V4.87463H36.0801Z" fill="white"/>
<path d="M41.9723 4.87464L44.2437 0.104464H45.0802L47.3516 4.87464H46.393L45.8679 3.75356H43.4255L42.8943 4.87464H41.9723ZM43.7613 2.99684H45.5382L44.6284 1.10222L43.7613 2.99684Z" fill="white"/>
<path d="M49.0247 4.87463V0.138086H49.9283V4.87463H49.0247Z" fill="white"/>
<path d="M52.041 4.87463V0.138086H52.8836L55.6435 3.41162V0.138086H56.535V4.87463H55.7779L52.9325 1.5114V4.87463H52.041Z" fill="white"/>
<path d="M61.432 4.87463V0.138086H62.2746L65.0345 3.41162V0.138086H65.926V4.87463H65.1688L62.3235 1.5114V4.87463H61.432Z" fill="white"/>
<path d="M67.9898 4.87463V0.138086H71.8121V0.883602H68.8934V2.11678H71.4946V2.85669H68.9057V4.12911H71.8609V4.87463H67.9898Z" fill="white"/>
<path d="M75.0604 4.90825L73.2653 0.138075H74.2422L75.4634 3.65264L76.7274 0.126866H77.4906L78.7607 3.65264L79.9818 0.138075H80.9344L79.1392 4.90825H78.3577L77.0876 1.50579L75.8237 4.90825H75.0604Z" fill="white"/>
<path d="M88.0112 4.9531C87.4854 4.95077 86.9719 4.80685 86.5344 4.53918C86.0968 4.2715 85.7544 3.89185 85.5497 3.44727C85.3449 3.00268 85.2867 2.51271 85.3824 2.03807C85.4781 1.56344 85.7233 1.125 86.0878 0.777097C86.3336 0.542597 86.63 0.357689 86.958 0.234157C87.286 0.110625 87.6384 0.051179 87.9929 0.059609C88.3685 0.0502735 88.743 0.103447 89.098 0.216559C89.419 0.332357 89.7163 0.497248 89.9773 0.704229L89.4033 1.33203C89.209 1.1739 88.9885 1.04523 88.75 0.950863C88.4973 0.860122 88.2275 0.816304 87.9562 0.821941C87.7307 0.820087 87.5074 0.863238 87.3018 0.948408C87.0962 1.03358 86.9133 1.15873 86.7656 1.31521C86.4471 1.6434 86.2748 2.06967 86.2832 2.50916C86.2737 2.73057 86.312 2.95151 86.3958 3.15929C86.4796 3.36708 86.6074 3.5576 86.7717 3.71992C86.9327 3.87796 87.129 4.00232 87.3471 4.08453C87.5652 4.16674 87.8 4.20489 88.0356 4.19638C88.4744 4.20247 88.9033 4.07647 89.2568 3.83763V2.94077H87.9807V2.21768H90.1788V4.20759C89.5832 4.69621 88.8098 4.9622 88.0112 4.9531Z" fill="white"/>
<path d="M92.0777 4.87463V0.138086H95.9184V0.883602H92.9997V2.11678H95.5826V2.85669H92.9997V4.12911H95.9184V4.87463H92.0777Z" fill="white"/>
<path d="M97.7502 4.87463V0.138086H98.5928L101.353 3.41162V0.138086H102.244V4.87463H101.487L98.6417 1.5114V4.87463H97.7502Z" fill="white"/>
<path d="M104.302 4.87463V0.138086H108.13V0.883602H105.212V2.11678H107.801V2.85669H105.212V4.12911H108.167V4.87463H104.302Z" fill="white"/>
<path d="M109.962 4.87465V0.138105H112.258C112.767 0.112982 113.268 0.258406 113.668 0.5473C113.839 0.687079 113.974 0.860498 114.061 1.05462C114.149 1.24874 114.188 1.45854 114.175 1.66838C114.191 2.00408 114.071 2.3333 113.839 2.59326C113.605 2.84451 113.291 3.02274 112.942 3.10335L114.334 4.89708H113.265L111.983 3.2491H110.878V4.89708L109.962 4.87465ZM110.866 2.48676H112.191C112.469 2.50043 112.744 2.42297 112.966 2.26815C113.057 2.20033 113.129 2.11477 113.179 2.01777C113.229 1.92077 113.254 1.81479 113.253 1.70761C113.257 1.60051 113.234 1.49398 113.186 1.39661C113.137 1.29924 113.064 1.21377 112.972 1.14708C112.743 0.998709 112.465 0.927447 112.185 0.945282H110.878L110.866 2.48676Z" fill="white"/>
<path d="M115.592 4.87464L117.863 0.104464H118.7L120.971 4.87464H120.012L119.487 3.75356H117.045L116.514 4.87464H115.592ZM117.381 2.99684H119.158L118.266 1.10222L117.381 2.99684Z" fill="white"/>
<path d="M123.194 4.87463V0.911626H121.563V0.138086H125.746V0.911626H124.116V4.87463H123.194Z" fill="white"/>
<path d="M127.486 4.87463V0.138086H128.396V4.87463H127.486Z" fill="white"/>
<path d="M134.905 4.23563C134.467 4.64789 133.886 4.90739 133.262 4.96966C132.638 5.03193 132.01 4.89311 131.485 4.57698C130.96 4.26084 130.572 3.78707 130.386 3.23681C130.2 2.68655 130.228 2.09406 130.466 1.56082C130.703 1.02759 131.136 0.586797 131.688 0.31396C132.241 0.0411233 132.88 -0.0467823 133.496 0.0653044C134.111 0.177391 134.665 0.482494 135.063 0.928347C135.46 1.3742 135.676 1.93306 135.674 2.50918C135.68 2.82976 135.615 3.14803 135.482 3.44478C135.35 3.74152 135.154 4.01056 134.905 4.23563ZM131.73 3.6751C131.892 3.82936 132.087 3.95205 132.302 4.03584C132.517 4.11964 132.748 4.16282 132.982 4.16282C133.215 4.16282 133.446 4.11964 133.661 4.03584C133.876 3.95205 134.071 3.82936 134.233 3.6751C134.561 3.35144 134.736 2.92258 134.722 2.48115C134.733 2.03816 134.553 1.60909 134.221 1.28721C134.059 1.13224 133.865 1.00892 133.65 0.924682C133.435 0.840439 133.203 0.79701 132.969 0.79701C132.735 0.79701 132.504 0.840439 132.289 0.924682C132.074 1.00892 131.879 1.13224 131.718 1.28721C131.392 1.61386 131.216 2.04392 131.229 2.48676C131.22 2.70987 131.26 2.93233 131.346 3.14117C131.432 3.35001 131.563 3.54104 131.73 3.70312V3.6751Z" fill="white"/>
<path d="M137.506 4.87463V0.138086H138.343L141.109 3.41162V0.138086H142V4.87463H141.237L138.397 1.5114V4.87463H137.506Z" fill="white"/>
</svg>
