<svg width="144" height="14" viewBox="0 0 144 14" fill="none" xmlns="http://www.w3.org/2000/svg">
<path d="M15.4806 5.10923C15.4806 7.64554 13.8579 9.01298 10.7436 9.01298H3.80537V11.2695L4.32065 11.2966V13.3274H0.82666V1.1062H10.8611C13.6545 1.1062 15.4806 2.72637 15.4806 5.10923ZM12.5381 5.10923C12.5381 4.06222 11.8284 3.47101 10.5221 3.47101H3.80537V6.65268H10.5402C11.7923 6.65268 12.5245 6.05696 12.5245 5.09118L12.5381 5.10923Z" fill="white"/>
<path d="M28.0011 13.3409L24.9908 9.01298H19.3543V11.3372L19.8063 11.3101L19.8334 13.3409H16.3575V1.1062H26.392C29.1854 1.1062 31.016 2.72637 31.016 5.10923C31.016 7.03628 30.0668 8.26833 28.2226 8.79184L31.3369 13.3409H28.0011ZM28.087 5.02349C28.087 4.09381 27.3412 3.45297 26.0756 3.45297H19.3543V6.65268H26.0846C27.3593 6.65268 28.087 6.03891 28.087 5.02349Z" fill="white"/>
<path d="M46.4248 2.76247C44.6229 1.44292 42.4466 0.731445 40.212 0.731445C37.9774 0.731445 35.8011 1.44292 33.9992 2.76247C33.3401 3.30485 32.8094 3.98609 32.4451 4.75736C32.0807 5.52862 31.8918 6.37082 31.8918 7.22357C31.8918 8.07632 32.0807 8.91852 32.4451 9.68978C32.8094 10.4611 33.3401 11.1423 33.9992 11.6847C35.8101 12.9905 37.9872 13.6934 40.221 13.6934C42.4549 13.6934 44.6319 12.9905 46.4429 11.6847C47.1135 11.1474 47.6526 10.4646 48.0192 9.68801C48.3857 8.91145 48.5701 8.06166 48.5582 7.20326C48.5661 6.3495 48.3779 5.5053 48.0081 4.73548C47.6382 3.96566 47.0966 3.29072 46.4248 2.76247ZM40.1962 11.3372C36.9598 11.3372 34.9484 9.6809 34.9484 7.21229C34.9484 4.74368 37.0141 3.10546 40.2097 3.10546C43.4054 3.10546 45.4756 4.79783 45.4756 7.21229C45.4756 9.62674 43.4596 11.3281 40.2097 11.3281L40.1962 11.3372Z" fill="white"/>
<path d="M55.2886 1.1062V9.09872C55.2886 10.6196 54.3077 11.107 52.1562 11.107C51.1663 11.107 50.4973 10.9265 50.0679 10.4887L48.4317 12.7452C49.5799 13.4311 50.9057 13.7624 52.2421 13.6975C56.1519 13.6975 58.2673 12.0773 58.2673 9.27022V1.1062H55.2886Z" fill="white"/>
<path d="M60.5002 13.3409V1.1062H72.189V3.45296H63.4653V5.95316H69.929V8.30443H63.4789V11.0122H72.189V13.3635L60.5002 13.3409Z" fill="white"/>
<path d="M86.3909 5.29878C85.6946 4.58952 84.8622 4.02773 83.9434 3.647C83.0247 3.26627 82.0384 3.07441 81.0437 3.08289C77.9972 3.08289 75.9316 4.80686 75.9316 7.17619C75.9316 9.54551 78.0289 11.2965 81.2788 11.2965C82.2501 11.3203 83.2148 11.1305 84.1045 10.7405C84.9942 10.3506 85.7871 9.77004 86.4271 9.04005L88.9493 10.394C86.9153 12.7091 84.6146 13.6884 81.4144 13.6884C79.3847 13.7311 77.3861 13.1856 75.6604 12.1179C74.83 11.5952 74.1471 10.8694 73.6764 10.0093C73.2057 9.14922 72.9629 8.18334 72.971 7.20326C72.9623 6.35055 73.1482 5.50707 73.5148 4.73684C73.8813 3.96661 74.4187 3.28986 75.0863 2.75796C76.8579 1.39723 79.0444 0.686515 81.2788 0.745166C84.5829 0.745166 87.1187 1.91403 89.0984 4.35556L86.3909 5.29878Z" fill="white"/>
<path d="M97.6051 3.45297V13.3409H94.6264V3.45297H88.7866V1.1062H103.445V3.45297H97.6051Z" fill="white"/>
<path d="M104.919 13.3409C105.054 10.245 106.677 8.31797 110.013 7.27096C111.604 6.78355 113.009 6.54436 113.972 6.02086C114.231 5.90947 114.451 5.7258 114.608 5.49199C114.764 5.25817 114.85 4.98419 114.854 4.70306C114.854 3.5703 113.669 2.77601 111.554 2.77601C109.805 2.75948 108.107 3.36409 106.763 4.48193L105.475 3.12803C107.196 1.71524 109.357 0.944601 111.586 0.948247C114.836 0.948247 117.055 2.60452 117.055 4.83394C117.055 6.53985 116.002 7.54174 113.818 8.16453C112.634 8.503 111.432 8.70609 110.284 9.09421C108.828 9.59967 107.879 10.2947 107.319 11.4906H117.358V13.3364L104.919 13.3409Z" fill="white"/>
<path d="M128.902 11.6847C127.689 12.8539 126.068 13.5073 124.382 13.5073C122.696 13.5073 121.075 12.8539 119.862 11.6847C119.255 11.1115 118.772 10.4209 118.442 9.65503C118.112 8.88917 117.942 8.06413 117.942 7.23034C117.942 6.39655 118.112 5.57151 118.442 4.80565C118.772 4.03978 119.255 3.34917 119.862 2.77602C121.072 1.60416 122.696 0.955596 124.382 0.970818C125.217 0.958865 126.047 1.11223 126.823 1.42207C127.598 1.7319 128.305 2.19207 128.902 2.77602C129.506 3.35053 129.987 4.04158 130.316 4.80726C130.644 5.57294 130.814 6.3973 130.814 7.23034C130.814 8.06338 130.644 8.88774 130.316 9.65342C129.987 10.4191 129.506 11.1102 128.902 11.6847ZM124.382 2.77602C121.81 2.77602 119.997 4.61732 119.997 7.22132C119.971 7.80634 120.066 8.3905 120.276 8.93725C120.486 9.484 120.807 9.98157 121.218 10.3988C121.63 10.8161 122.123 11.144 122.668 11.3622C123.212 11.5803 123.796 11.684 124.382 11.6666C126.94 11.6666 128.766 9.80726 128.766 7.22132C128.766 4.63537 126.954 2.77602 124.382 2.77602Z" fill="white"/>
<path d="M130.561 13.3409C130.696 10.245 132.324 8.31797 135.655 7.27096C137.246 6.78355 138.652 6.54436 139.614 6.02085C139.874 5.91041 140.095 5.72697 140.252 5.49295C140.408 5.25893 140.493 4.98445 140.496 4.70306C140.496 3.5703 139.311 2.77601 137.196 2.77601C135.447 2.75948 133.749 3.36409 132.405 4.48193L131.121 3.12803C132.841 1.71457 135 0.943766 137.228 0.948248C140.478 0.952761 142.702 2.59098 142.702 4.84748C142.702 6.55339 141.653 7.55527 139.47 8.17807C138.285 8.51654 137.083 8.71963 135.931 9.10775C134.475 9.6132 133.526 10.3082 132.97 11.5041H143.004V13.35L130.561 13.3409Z" fill="white"/>
</svg>
